<svg width="482" height="489" viewBox="0 0 482 489" fill="none" xmlns="http://www.w3.org/2000/svg"><path d="M403.15 431.84H336.37V36.44L403.15 32.72V431.84Z" fill="#D5E4FC"/><path d="M448.06 45.07V431.85H403.15V32.73L424.41 38.57L432.41 40.77L448.06 45.07Z" fill="#181621"/><path d="M391.17 99.0002L362.11 100.96V86.3601L391.17 84.4001V99.0002Z" fill="#181621"/><path d="M391.17 122.34L362.11 124.3V109.7L391.17 107.73V122.34Z" fill="#181621"/><path d="M391.17 147.83L362.11 149.79V135.18L391.17 133.22V147.83Z" fill="#181621"/><path d="M391.17 170.93L362.11 172.89V158.28L391.17 156.32V170.93Z" fill="#181621"/><path d="M391.17 195.99L362.11 197.95V183.35L391.17 181.39V195.99Z" fill="#181621"/><path d="M391.17 219.6L362.11 221.57V206.96L391.17 205V219.6Z" fill="#181621"/><path d="M391.17 244.12L362.11 246.08V231.47L391.17 229.51V244.12Z" fill="#181621"/><path d="M391.17 267.91L362.11 269.87V255.27L391.17 253.3V267.91Z" fill="#181621"/><path d="M403.15 431.84H362.11V287.87L403.15 286.97V431.84Z" fill="#91A5C1"/><path d="M360.77 17.3901H358.37V36.9001H360.77V17.3901Z" fill="#DEEAF8"/><path d="M383.66 0.810059H381.26V36.9001H383.66V0.810059Z" fill="#DEEAF8"/><path d="M516.313 60.6198V429.551H385V71.4273L426.382 51H468.715L469.269 51.1056L516.313 60.6198Z" fill="#FAFAFA"/><path d="M516.313 60.62V257.543C514.98 260.195 510.612 260.736 508.831 257.78L469.824 193.595C469.467 193.001 469.283 192.329 469.283 191.656V51.1057L516.326 60.6068L516.313 60.62Z" fill="#163A65"/><path d="M425.353 64.5918L425.617 429.551H385V84.2801L425.353 64.5918Z" fill="url(#paint0_linear_5510_3343)"/><path d="M342.293 418.091H317.117V398.916C317.117 393.662 321.388 389.406 326.626 389.406H332.768C338.022 389.406 342.278 393.678 342.278 398.916V418.091H342.293Z" fill="#79BC0F"/><path d="M323.134 422.721H276.366V411.699C276.366 401.94 284.285 394.021 294.044 394.021H305.456C315.214 394.021 323.134 401.94 323.134 411.699V422.721Z" fill="#79BC0F"/><path d="M101.158 325.787C101.158 332.256 142.75 337.619 194.039 337.759C245.343 337.9 286.92 332.771 286.92 326.301C286.92 319.832 245.25 313.658 193.961 313.518C142.657 313.378 101.158 319.302 101.158 325.771V325.787Z" fill="#043550"/><path d="M125.696 329.341V353.707H262.383V329.762C262.383 324.649 231.719 319.754 193.977 319.644C156.236 319.535 125.696 324.228 125.696 329.357V329.341Z" fill="url(#paint1_linear_5510_3343)"/><path d="M101.158 382.267C101.158 388.627 145.401 393.881 199.979 394.021C254.557 394.161 298.799 389.126 298.799 382.781C298.799 376.436 254.463 370.372 199.901 370.232C145.323 370.091 101.174 375.922 101.174 382.267H101.158Z" fill="#043550"/><path d="M101.267 355.531H101.158V382.267C101.158 375.922 145.307 370.091 199.885 370.232C254.463 370.372 298.783 376.436 298.783 382.781V355.531C298.783 349.186 254.447 343.122 199.885 342.982C145.307 342.841 101.158 348.672 101.158 355.017C101.158 355.188 101.189 355.36 101.267 355.531Z" fill="white"/><path d="M374.407 443.189V445.761L352.566 448.848V469.41H118.759V453.135C118.759 453.135 54.2192 450.002 53.1591 445.777C52.0991 441.552 62.4971 430.874 62.4971 430.874L252.624 415.456L355.918 433.181L374.423 443.205L374.407 443.189Z" fill="#043550"/><path d="M118.198 387.115V414.147H269.881V387.567C269.881 381.877 235.85 376.452 193.977 376.327C152.089 376.202 118.213 381.409 118.213 387.099L118.198 387.115Z" fill="url(#paint2_linear_5510_3343)"/><path d="M118.198 449.799V475.709H263.505V450.252C263.505 444.811 230.908 439.604 190.781 439.495C150.655 439.386 118.198 444.374 118.198 449.815V449.799Z" fill="#124E94"/><path d="M327.951 473.604L340.999 474.134V451.998L327.951 451.468V473.604Z" fill="#0059AA"/><path d="M313.188 472.996L326.236 473.526V451.389L313.188 450.859V472.996Z" fill="#0059AA"/><path d="M297.864 472.373L310.912 472.903V450.766L297.864 450.236V472.373Z" fill="#0059AA"/><path d="M283.085 471.764L296.134 472.294V450.173L283.085 449.627V471.764Z" fill="#0059AA"/><path d="M268.462 471.172L281.511 471.702V449.565L268.462 449.035V471.172Z" fill="#0059AA"/><path d="M0.0155893 488.757H381.703C381.267 482.989 377.026 468.522 369.886 468.007C331.63 465.264 214.508 460.15 192.543 459.776C169.954 459.402 65.3502 462.582 22.7447 469.598C16.3375 470.658 2.43192 484.392 0 488.757H0.0155893Z" fill="url(#paint3_linear_5510_3343)"/><path d="M168.114 312.286C184.292 312.286 197.407 300.582 197.407 286.143C197.407 271.705 184.292 260 168.114 260C151.937 260 138.822 271.705 138.822 286.143C138.822 300.582 151.937 312.286 168.114 312.286Z" fill="#79BC0F"/><path d="M104.245 293.844C104.245 306.207 118.541 310.416 137.31 310.416C156.08 310.416 172.215 306.191 172.215 293.844C172.215 281.482 156.999 271.458 138.23 271.458C119.46 271.458 104.245 281.482 104.245 293.844Z" fill="#79BC0F"/><path d="M271.487 431.295C282.086 431.295 290.678 423.624 290.678 414.162C290.678 404.7 282.086 397.03 271.487 397.03C260.889 397.03 252.297 404.7 252.297 414.162C252.297 423.624 260.889 431.295 271.487 431.295Z" fill="#76B054"/><path d="M228.398 431.872C247.167 431.872 262.383 421.849 262.383 409.486C262.383 397.122 247.167 387.099 228.398 387.099C209.629 387.099 194.413 397.122 194.413 409.486C194.413 421.849 209.629 431.872 228.398 431.872Z" fill="#76B054"/><path d="M170.36 411.793C170.36 424.155 180.836 433.649 193.759 433.01C206.683 432.371 217.159 421.833 217.159 409.47C217.159 397.108 206.683 387.614 193.759 388.253C180.836 388.893 170.36 399.431 170.36 411.793Z" fill="#76B054"/><path d="M85.9285 413.772C85.9285 423.453 94.1284 430.889 104.246 430.39C114.363 429.892 122.563 421.645 122.563 411.964C122.563 402.283 114.363 394.847 104.246 395.346C94.1284 395.845 85.9285 404.091 85.9285 413.772Z" fill="#76B054"/><path d="M244.065 294.749C244.065 304.429 252.265 311.866 262.383 311.367C272.5 310.868 280.7 302.621 280.7 292.94C280.7 283.259 272.5 275.823 262.383 276.322C252.265 276.821 244.065 285.068 244.065 294.749Z" fill="#79BC0F"/><path d="M101.267 298.552H101.174V325.771C101.174 322.825 109.779 319.988 124.028 317.79C141.036 315.155 166.056 313.44 193.977 313.518C221.881 313.596 246.933 315.451 263.988 318.179C278.283 320.455 286.951 323.355 286.951 326.301V298.552C286.951 295.793 279.39 293.096 266.763 290.898C249.724 287.936 223.44 285.863 193.992 285.785C164.591 285.707 138.417 287.609 121.424 290.477C108.766 292.613 101.205 295.279 101.205 298.038C101.205 298.209 101.236 298.396 101.299 298.568L101.267 298.552Z" fill="white"/><path d="M374.407 443.189V426.805C374.407 419.93 369.169 414.178 362.325 413.538C327.499 410.311 227.182 401.192 208.6 400.771C189.706 400.334 97.2768 407.162 64.4458 414.256C57.8515 415.674 53.1592 421.505 53.1592 428.239V445.73C53.1592 445.73 59.3014 437.608 179.931 432.838C192.964 432.324 206.027 432.401 219.044 433.103C314.809 438.185 374.407 443.158 374.407 443.158V443.189Z" fill="white"/><path d="M189.067 285.769V295.294L199.776 306.019V313.518" stroke="#F88E5C" stroke-width="1.16919" stroke-miterlimit="10"/><path d="M142.517 372.492V363.575L136.484 357.542V345.959" stroke="#F88E5C" stroke-width="1.16919" stroke-miterlimit="10"/><defs><linearGradient id="paint0_linear_5510_3343" x1="384.999" y1="247.072" x2="389.526" y2="127.207" gradientUnits="userSpaceOnUse"><stop stop-color="#0059AA"/><stop offset="1" stop-color="#0086FF"/></linearGradient><linearGradient id="paint1_linear_5510_3343" x1="125.693" y1="336.675" x2="125.704" y2="325.471" gradientUnits="userSpaceOnUse"><stop stop-color="#0059AA"/><stop offset="1" stop-color="#0086FF"/></linearGradient><linearGradient id="paint2_linear_5510_3343" x1="118.194" y1="395.236" x2="118.207" y2="382.796" gradientUnits="userSpaceOnUse"><stop stop-color="#0059AA"/><stop offset="1" stop-color="#0086FF"/></linearGradient><linearGradient id="paint3_linear_5510_3343" x1="264.285" y1="474.68" x2="176.392" y2="478.14" gradientUnits="userSpaceOnUse"><stop offset="0.23" stop-color="#AEC5E5"/><stop offset="0.48" stop-color="#D5E4FC"/><stop offset="1" stop-color="white"/></linearGradient></defs></svg>