<svg width="310" height="584" viewBox="0 0 310 584" fill="none" xmlns="http://www.w3.org/2000/svg"><g clip-path="url(#clip0_5510_3648)"><path d="M133.87 116V197.04" stroke="#9EC0BB" stroke-miterlimit="10"/><path d="M121.92 199.05V486.8H288.46V191.65H278.46V195.18L244.42 187.78L201.81 191.2V179.89L164.28 176.3L141.87 184.25V195.01L121.92 199.05Z" fill="#FEFFFF"/><path d="M201.82 277.31L173.71 279.58H175.64V486.8H170.13V279.87L164.28 280.34V176.3L201.82 179.77V277.31Z" fill="url(#paint0_linear_5510_3648)"/><path d="M244.42 187.78V209.61L254.39 210.03V486.8H288.46V191.65H278.46V195.18L244.42 187.78Z" fill="url(#paint1_linear_5510_3648)"/><path d="M175.65 489.36H283.67L283.67 218.41H175.65L175.65 489.36Z" fill="#FEFFFF"/><path d="M175.64 244.71V260.09C178.06 259.79 180.53 259.52 183.04 259.25C195.53 257.97 209.14 257.26 223.37 257.26C228.94 257.26 234.41 257.37 239.76 257.57C255.77 258.2 270.67 259.71 283.66 261.93V246.56C270.67 244.34 255.77 242.82 239.76 242.19C234.41 241.99 228.94 241.88 223.37 241.88C209.14 241.88 195.53 242.59 183.04 243.86C180.53 244.12 178.06 244.4 175.64 244.71Z" fill="#16529B"/><path d="M175.64 282.42V297.8C178.06 297.5 180.53 297.22 183.04 296.95C195.53 295.67 209.14 294.96 223.37 294.96C228.94 294.96 234.41 295.07 239.76 295.27C255.77 295.9 270.67 297.42 283.66 299.64V284.26C270.67 282.04 255.77 280.53 239.76 279.9C234.41 279.7 228.94 279.59 223.37 279.59C209.14 279.59 195.53 280.3 183.04 281.57C180.53 281.83 178.06 282.11 175.64 282.42Z" fill="#F88E5C"/><path d="M175.64 322.69V338.06C178.06 337.76 180.53 337.48 183.04 337.21C195.53 335.94 209.14 335.23 223.37 335.23C228.94 335.23 234.41 335.34 239.76 335.54C255.77 336.17 270.67 337.69 283.66 339.91V324.53C270.67 322.31 255.77 320.8 239.76 320.17C234.41 319.97 228.94 319.86 223.37 319.86C209.14 319.86 195.53 320.57 183.04 321.84C180.53 322.1 178.06 322.38 175.64 322.69Z" fill="#16529B"/><path d="M175.64 361.68V377.05C178.06 376.75 180.53 376.47 183.04 376.2C195.53 374.93 209.14 374.22 223.37 374.22C228.94 374.22 234.41 374.33 239.76 374.53C255.77 375.16 270.67 376.68 283.66 378.9V363.52C270.67 361.3 255.77 359.79 239.76 359.16C234.41 358.96 228.94 358.85 223.37 358.85C209.14 358.85 195.53 359.56 183.04 360.83C180.53 361.09 178.06 361.37 175.64 361.68Z" fill="#16529B"/><path d="M175.64 217.62V228.34C178.06 228.04 180.53 227.75 183.04 227.49C195.53 226.18 209.14 225.46 223.37 225.46C228.94 225.46 234.41 225.57 239.76 225.78C255.77 226.42 270.67 227.97 283.66 230.22V219.49C270.67 217.24 255.77 215.69 239.76 215.06C234.41 214.85 228.94 214.74 223.37 214.74C209.14 214.74 195.53 215.46 183.04 216.77C180.53 217.02 178.06 217.31 175.64 217.62Z" fill="#4292C7"/><path d="M239.76 215.07V225.79C255.77 226.43 270.67 227.98 283.66 230.23V219.5C270.67 217.25 255.77 215.7 239.76 215.07Z" fill="#4487BD"/><path d="M283.66 246.57C270.67 244.35 255.77 242.83 239.76 242.2V257.58C255.77 258.21 270.67 259.72 283.66 261.94V246.57Z" fill="#16529B"/><path d="M283.66 324.53C270.67 322.31 255.77 320.8 239.76 320.17V335.54C255.77 336.17 270.67 337.69 283.66 339.91V324.53Z" fill="#163A65"/><path d="M283.66 363.52C270.67 361.3 255.77 359.79 239.76 359.16V374.53C255.77 375.16 270.67 376.68 283.66 378.9V363.52Z" fill="#163A65"/><path d="M175.64 217.62V228.34C178.06 228.04 180.53 227.75 183.04 227.49V216.77C180.53 217.02 178.06 217.31 175.64 217.62Z" fill="#4487BD"/><path d="M183.05 243.86C180.54 244.12 178.07 244.4 175.65 244.71V260.09C178.07 259.79 180.54 259.52 183.05 259.25V243.86Z" fill="#163A65"/><path d="M183.05 282.85C180.54 283.11 178.07 283.39 175.65 283.7V299.08C178.07 298.78 180.54 298.5 183.05 298.23V282.85Z" fill="#163A65"/><path d="M183.05 321.84C180.54 322.1 178.07 322.38 175.65 322.69V338.06C178.07 337.76 180.54 337.48 183.05 337.21V321.84Z" fill="#163A65"/><path d="M183.05 360.83C180.54 361.09 178.07 361.37 175.65 361.68V377.05C178.07 376.75 180.54 376.47 183.05 376.2V360.83Z" fill="#163A65"/><path d="M175.64 401.21V416.58C178.06 416.28 180.53 416.01 183.04 415.74C195.53 414.46 209.14 413.75 223.37 413.75C228.94 413.75 234.41 413.86 239.76 414.06C255.77 414.69 270.67 416.2 283.66 418.42V403.05C270.67 400.83 255.77 399.32 239.76 398.69C234.41 398.49 228.94 398.38 223.37 398.38C209.14 398.38 195.53 399.08 183.04 400.36C180.53 400.62 178.06 400.9 175.64 401.21Z" fill="#16529B"/><path d="M283.66 403.06C270.67 400.84 255.77 399.33 239.76 398.7V414.07C255.77 414.7 270.67 416.21 283.66 418.43V403.06Z" fill="#163A65"/><path d="M183.05 400.36C180.54 400.62 178.07 400.9 175.65 401.21V416.58C178.07 416.28 180.54 416.01 183.05 415.74V400.36Z" fill="#163A65"/><path d="M173.66 240.63V244.45C173.66 245.11 174.23 245.61 174.88 245.53C189.55 243.72 205.9 242.7 223.15 242.7C245.68 242.7 266.68 244.43 284.39 247.41C285.06 247.52 285.65 247.01 285.65 246.34V242.53C285.65 242 285.27 241.54 284.75 241.45C266.97 238.43 245.83 236.68 223.15 236.68C205.8 236.68 189.35 237.71 174.62 239.54C174.07 239.61 173.67 240.07 173.67 240.63H173.66Z" fill="#FEFFFF"/><path d="M175.65 214.57V220.39C190.09 218.55 206.29 217.51 223.38 217.51C235.23 217.51 246.65 218 257.36 218.92L263.66 223.01L283.67 225.64V216.45C266.33 213.44 245.63 211.7 223.38 211.7C206.28 211.7 190.09 212.74 175.65 214.57Z" fill="#FEFFFF"/><path d="M175.65 239.76V245.58C190.09 243.74 206.29 242.7 223.38 242.7C235.23 242.7 246.65 243.19 257.36 244.11L263.66 248.2L283.67 250.83V241.64C266.33 238.63 245.63 236.89 223.38 236.89C206.28 236.89 190.09 237.93 175.65 239.76Z" fill="#FEFFFF"/><path d="M175.64 228.94V225.33L194.91 223.83L202.6 228.62L176.99 229.56L176.08 228.68L175.64 228.94Z" fill="#FEFFFF"/><path d="M175.64 260.31V256.71L194.91 255.21L202.6 260L176.99 260.94L176.08 260.06L175.64 260.31Z" fill="#FEFFFF"/><path d="M308.01 498.07L309.2 494.89C309.2 494.89 306.82 491.02 306.52 490.82C306.22 490.62 270.97 486.05 270.97 486.05C270.97 486.05 263.22 478.9 262.93 478.8C262.64 478.7 252.3 477.11 251.91 477.11C251.52 477.11 218.74 479.2 218.74 479.2L208.51 479.1L207.12 483.77L208.31 485.86L198.98 478.51L195.01 478.21L193.72 467.49L183.59 463.72C183.59 463.72 164.23 462.83 163.83 462.83C163.43 462.83 159.16 463.43 158.67 463.92C158.18 464.41 162.05 469.88 162.05 469.88L163.04 472.06L154.4 471.07C154.4 471.07 151.82 471.27 151.82 472.46C151.82 473.65 149.64 476.23 149.64 476.23L131.87 475.44L122.14 481.1L118.47 487.36L96.03 498.08H308.04L308.01 498.07Z" fill="#33702C"/><path d="M308.01 498.07L299.47 494.2C299.47 494.2 282.79 489.93 282.09 489.93H277.12L275.33 493.11L262.82 492.02C262.82 492.02 253.19 486.76 245.34 486.66C237.5 486.56 229.35 492.37 229.35 492.37L188.64 490.33L184.27 490.13C184.27 490.13 183.57 485.56 179.4 485.26C175.23 484.96 169.77 486.35 169.77 486.35C169.77 486.35 162.32 483.17 161.93 483.17C161.54 483.17 156.87 482.67 156.27 483.17C155.67 483.67 152.6 485.75 151.7 486.45C150.8 487.15 140.78 489.23 140.78 489.23L129.16 489.03L123.8 493.8L101.21 495.58L96 498.07H308.01Z" fill="#1B3833"/><path d="M175.64 283.7V299.08C178.06 298.78 180.53 298.5 183.04 298.23C195.53 296.95 209.14 296.24 223.37 296.24C228.94 296.24 234.41 296.35 239.76 296.55C255.77 297.18 270.67 298.7 283.66 300.92V285.54C270.67 283.32 255.77 281.81 239.76 281.18C234.41 280.98 228.94 280.87 223.37 280.87C209.14 280.87 195.53 281.58 183.04 282.85C180.53 283.11 178.06 283.39 175.64 283.7Z" fill="#16529B"/></g><g clip-path="url(#clip1_5510_3648)"><path d="M-7.37007 35.9299V204.09C0.809932 206.46 9.86993 203.59 12.5799 181.77C17.8399 139.53 48.2799 94.7599 90.4099 84.9199V412.69H-9.07007V28.1499H90.4099V48.0799C65.1299 43.6199 33.0499 39.4799 -1.92007 36.3999C-3.74007 36.2399 -5.56007 36.0799 -7.37007 35.9299Z" fill="white"/><path d="M40.6698 28.1399H16.5598V412.68H40.6698V28.1399Z" fill="url(#paint2_linear_5510_3648)"/><path d="M70.2598 28.1399H55.8098V412.68H70.2598V28.1399Z" fill="url(#paint3_linear_5510_3648)"/><path d="M57.2499 28.1399H54.3699V412.68H57.2499V28.1399Z" fill="#F88E5C"/><path d="M-0.2 379.19L11.85 377.12L14.95 376.03C14.95 376.03 20.79 364.75 21.66 364.24C22.53 363.73 32.96 366.42 32.96 366.42L34.7 371.94L36.56 368.54L42.52 369.69L46.25 373.72L55.56 375.07L60.4 386.49L62.59 381.57L66.74 382.37C66.74 382.37 68.6 364.95 78.16 368.15C87.72 371.35 88.09 380.67 88.09 380.67L91.94 379.23L96.53 381.39L97.15 390.08L103.36 380.45L111.93 383.08L112.68 391.95L121.25 388.42L126.09 396.8L131.06 402.03L133.3 403.61C133.3 403.61 142.24 409.98 142.61 409.98C142.98 409.98 146.21 413.77 146.21 413.77L-11 386.05L-5.29 382.94L-2.93 379.34L-0.2 379.19Z" fill="#55A549"/><path d="M146.35 417.21L146 444.63V444.72L-7.37012 425.66V378.91L-6.18012 379.32C-6.18012 379.32 -2.38012 380.02 4.02988 381.23C4.04988 381.23 4.06988 381.24 4.07988 381.24C35.0899 387.09 126.76 404.82 143.77 413.06C144.79 413.56 145.57 414.4 145.99 415.41C146.23 415.97 146.36 416.58 146.35 417.21Z" fill="white"/><path d="M146 415.61C145.57 424.64 78.7599 423.56 -3.22012 413.2C-4.61012 413.02 -5.99012 412.85 -7.37012 412.67V379.79C-5.47012 380.02 -3.57012 380.26 -1.65012 380.5C0.249883 380.74 2.14988 380.98 4.02988 381.23C4.04988 381.23 4.06988 381.24 4.07988 381.24C82.7999 391.52 145.47 406.56 145.99 415.41C146 415.48 146 415.54 146 415.61Z" fill="white"/><path d="M146 444.72C145.91 446.63 142.83 448.21 137.25 449.43C143.59 446.56 146 444.72 146 444.72Z" fill="#7DBEEA"/><path d="M146 444.63V444.72C146 444.72 143.59 446.56 137.25 449.43C129.22 453.06 114.88 458.35 91.1299 463.66C48.6299 473.16 17.8699 518.2 12.5799 560.68C9.86988 582.5 0.809883 585.37 -7.37012 583V414.84C-5.56012 414.99 -3.74012 415.15 -1.92012 415.31C79.9399 422.51 146 435.61 146 444.63Z" fill="#163A65"/><path d="M146.35 38.3L146 65.72V65.81L-7.37012 46.75V0L-6.18012 0.41C-6.18012 0.41 -2.38012 1.11 4.02988 2.32C4.04988 2.32 4.06988 2.33 4.07988 2.33C35.0899 8.18 126.76 25.91 143.77 34.15C144.79 34.65 145.57 35.49 145.99 36.5C146.23 37.06 146.36 37.67 146.35 38.3Z" fill="white"/><path d="M146 36.6999C145.57 45.7299 78.7599 44.6499 -3.22012 34.2899C-4.61012 34.1099 -5.99012 33.9399 -7.37012 33.7599V0.879883C-5.47012 1.10988 -3.57012 1.34988 -1.65012 1.58988C0.249883 1.82988 2.14988 2.06988 4.02988 2.31988C4.04988 2.31988 4.06988 2.32988 4.07988 2.32988C82.7999 12.6099 145.47 27.6499 145.99 36.4999C146 36.5699 146 36.6299 146 36.6999Z" fill="white"/><path d="M146 65.8101C145.91 67.7201 142.83 69.3001 137.25 70.5201C143.59 67.6501 146 65.8101 146 65.8101Z" fill="#7DBEEA"/><path opacity="0.08" d="M90.4099 48.0799V84.9199C48.2799 94.7599 17.8399 139.53 12.5799 181.77C9.86988 203.59 0.809883 206.46 -7.37012 204.09V35.9299C-5.56012 36.0799 -3.74012 36.2399 -1.92012 36.3999C33.0499 39.4799 65.1299 43.6199 90.4099 48.0799Z" fill="#606060"/><path d="M146 65.7201V65.8101C146 65.8101 143.59 67.6501 137.25 70.5201C129.22 74.1501 114.88 79.4401 91.1299 84.7501C90.8899 84.8001 90.6499 84.8601 90.4099 84.9201V48.0801C124.32 54.0501 146 60.5501 146 65.7201Z" fill="#06344F"/><path d="M103.35 19.71V32.9L110.75 40.31V52.04" stroke="#F88E5C" stroke-miterlimit="10"/><path d="M78.29 393.2V403.91L88.74 414.36V426.7" stroke="#F88E5C" stroke-miterlimit="10"/></g><path d="M108.641 392.892C108.641 392.892 121.425 360.985 121.852 360.451C122.28 359.917 149.379 343.394 149.379 343.394L145.355 341.898L132.144 350.765L140.228 338.942H135.598C135.598 338.942 127.515 354.255 124.986 355.465C122.458 356.676 127.408 345.103 131.076 340.082L130.826 338.016H126.482L123.775 343.572L118.185 335.167L116.333 336.592C116.333 336.592 120.25 344.676 118.826 348.165C118.006 350.195 114.445 360.024 109.994 367.644C106.825 373.057 102.231 377.295 102.231 377.295L97.6372 363.157C97.6372 363.157 102.979 349.056 102.801 338.693H98.9548C98.9548 338.693 100.522 347.524 94.4679 357.246C93.5776 358.421 92.4025 357.923 92.4025 357.923L88.4854 351.655L96.2484 339.726L86.9897 349.269L78.9061 335.167L70.0746 336.663L83.0725 351.228L72.2469 350.658L62.8457 335.488L60.531 336.271L67.8312 349.412L47.6756 340.865L45.6814 343.144L60.7447 352.332L68.3654 353.899L85.6365 354.86C85.6365 354.86 100.949 383.847 96.925 391.29C92.9011 398.732 108.712 392.821 108.712 392.821L108.641 392.892Z" fill="#06344F"/><path d="M201.371 331.962C182.355 343.785 169.143 348.414 151.73 344.853C151.73 344.853 150.626 344.426 148.774 343.785C147.635 343.393 146.21 342.93 144.608 342.432C142.898 341.897 140.975 341.328 138.946 340.829C137.699 340.509 136.382 340.188 135.064 339.903C133.604 339.583 132.215 339.227 130.862 338.871C129.9 338.586 128.939 338.336 127.977 338.087C124.986 337.268 122.137 336.591 119.075 336.663C118.185 336.663 117.294 336.734 116.368 336.912C114.588 337.197 112.736 337.767 110.742 338.728C106.504 340.758 104.19 342.325 102.552 343.179C101.127 343.927 100.237 344.141 99.0261 343.642C98.5631 343.429 98.0646 343.144 97.4948 342.716C96.8182 342.218 96.0704 341.719 95.287 341.185C95.2157 341.114 95.1089 341.043 95.0021 341.007C91.2986 338.514 86.4555 335.808 82.2179 336.663C81.5413 336.805 80.7579 336.912 79.9388 337.054C77.5529 337.446 74.5616 337.873 71.4279 338.194C69.2556 338.443 67.0478 338.621 64.84 338.764C63.8429 338.835 62.8813 338.871 61.9199 338.906C60.6735 338.942 59.4628 338.942 58.3232 338.906C55.5456 338.835 52.8392 340.081 49.7055 341.791C48.6371 342.36 47.4976 342.966 46.3224 343.607C41.4794 346.171 35.5681 348.913 27.2708 349.233C12.2431 349.803 3.34047 350.764 2.59264 342.396C2.52142 341.719 2.52142 340.972 2.59264 340.153C3.23363 329.363 -4.17334 330.431 -4.17334 324.947C-4.17334 319.463 -14.3224 313.124 -9.87106 307.604C-5.41974 302.085 5.76201 293.431 14.0237 292.612C22.2497 291.758 21.8224 283.318 25.6327 280.79C29.443 278.261 36.85 277.834 37.8827 276.979C38.951 276.16 41.052 266.652 53.9431 264.088C66.8341 261.56 69.1488 260.705 78.6568 260.919C88.1648 261.133 95.9636 255.435 105.472 258.177C114.98 260.919 123.206 252.871 134.85 257.429C135.028 257.5 135.206 257.572 135.384 257.643C146.388 262.165 155.362 272.279 167.007 274.665C167.398 274.736 167.826 274.807 168.217 274.878C173.274 275.662 179.007 277.371 184.171 279.508C191.685 282.677 197.917 286.772 199.056 290.298C200.944 296.209 193.358 304.043 193.358 304.043C193.358 304.043 220.387 320.104 201.371 331.926V331.962Z" fill="#254C37"/><path d="M68.0808 277.87C84.426 275.769 106.968 285.205 105.258 287.591C103.549 289.977 98.4922 289.977 75.8082 287.164C53.1599 284.351 38.346 298.844 38.346 298.844C38.346 298.844 54.6912 299.557 60.1752 299.806C65.6592 300.091 74.3839 311.629 66.229 309.812C58.0386 307.996 26.2383 315.581 26.2383 315.581C26.2383 315.581 30.7609 317.006 30.7609 319.534C30.7609 322.062 11.3175 329.683 11.3175 329.683C11.3175 329.683 28.7667 328.009 22.8553 330.823C18.7601 332.746 8.57549 338.835 2.59291 342.432C2.5217 341.755 2.5217 341.007 2.59291 340.188C3.2339 329.398 -4.17307 330.467 -4.17307 324.982C-4.17307 319.498 -14.3221 313.16 -9.87079 307.64C-5.41946 302.12 5.76228 293.467 14.0239 292.648C22.25 291.793 21.8226 283.354 25.633 280.825C29.4433 278.297 36.8503 277.87 37.883 277.015C38.9513 276.196 41.0523 266.688 53.9434 264.124C66.8344 261.596 69.1491 260.741 78.6571 260.955C88.1651 261.168 95.9638 255.471 105.472 258.213C114.98 260.955 123.206 252.907 134.851 257.465C135.029 257.536 135.207 257.607 135.385 257.679C131.966 259.851 126.945 261.952 119.787 263.768C87.5597 271.923 51.7711 279.971 68.1164 277.834L68.0808 277.87Z" fill="#79BC0F"/><path d="M86.7758 313.801C85.9211 313.801 72.4247 313.48 74.6326 309.67C76.8405 305.859 82.7518 303.117 86.7758 301.942C90.7998 300.767 100.415 299.307 100.308 303.723C100.201 308.138 103.37 302.548 108.641 302.832C113.911 303.117 117.187 308.388 119.822 308.388C122.458 308.388 122.351 313.658 115.193 314.192C109.78 314.584 90.1944 318.287 80.9 320.068C79.7961 320.282 79.1907 318.822 80.1522 318.216L86.8114 313.765L86.7758 313.801Z" fill="#79BC0F"/><path d="M108.926 285.312C108.926 285.312 117.971 282.998 118.327 287.271C118.683 291.544 107.252 291.402 107.359 288.589C107.466 285.775 108.926 285.312 108.926 285.312Z" fill="#33702C"/><path d="M148.881 267.543C148.881 267.543 139.48 265.228 133.889 268.718C128.298 272.208 118.576 273.988 121.425 276.623C124.274 279.258 145.605 281.253 148.774 279.579C151.943 277.905 143.29 273.952 143.504 273.49C143.717 273.027 155.219 275.555 156.715 274.415C158.211 273.276 148.916 267.543 148.916 267.543H148.881Z" fill="#33702C"/><path d="M182.746 290.618C179.15 294.25 179.897 285.276 178.936 281.359C178.01 277.549 167.469 274.842 166.935 274.7C167.327 274.771 167.754 274.842 168.146 274.914C173.203 275.697 178.936 277.406 184.099 279.543C184.099 279.543 186.307 286.95 182.711 290.582L182.746 290.618Z" fill="#33702C"/><path d="M125.841 302.832C125.948 302.156 140.94 294.962 164.585 293.289C188.231 291.615 169.963 288.553 169.963 288.553C169.963 288.553 169.5 285.49 166.936 284.707C164.372 283.923 131.717 285.063 127.301 289.941C122.885 294.82 121.283 300.197 120.001 300.767C118.719 301.337 116.084 307.034 122.423 306.928C128.761 306.821 162.342 304.933 164.336 303.545C166.33 302.156 125.77 302.868 125.77 302.868L125.841 302.832Z" fill="#79BC0F"/><path d="M175.945 304.079C175.276 304.079 174.734 303.537 174.734 302.868C174.734 302.2 175.276 301.657 175.945 301.657C176.614 301.657 177.156 302.2 177.156 302.868C177.156 303.537 176.614 304.079 175.945 304.079Z" fill="#33702C"/><path d="M178.331 297.207C176.581 297.207 175.162 296.521 175.162 295.675C175.162 294.83 176.581 294.144 178.331 294.144C180.081 294.144 181.5 294.83 181.5 295.675C181.5 296.521 180.081 297.207 178.331 297.207Z" fill="#33702C"/><path d="M188.943 307.961C187.743 307.961 186.77 307.61 186.77 307.177C186.77 306.745 187.743 306.394 188.943 306.394C190.142 306.394 191.115 306.745 191.115 307.177C191.115 307.61 190.142 307.961 188.943 307.961Z" fill="#33702C"/><defs><linearGradient id="paint0_linear_5510_3648" x1="183.05" y1="216.69" x2="183.05" y2="507.55" gradientUnits="userSpaceOnUse"><stop stop-color="#BEE0FF"/><stop offset="1" stop-color="white"/></linearGradient><linearGradient id="paint1_linear_5510_3648" x1="266.44" y1="282.68" x2="266.44" y2="407.19" gradientUnits="userSpaceOnUse"><stop stop-color="#BEE0FF"/><stop offset="1" stop-color="white"/></linearGradient><linearGradient id="paint2_linear_5510_3648" x1="16.5592" y1="220.41" x2="24.9997" y2="94.5" gradientUnits="userSpaceOnUse"><stop stop-color="#0059AA"/><stop offset="1" stop-color="#0086FF"/></linearGradient><linearGradient id="paint3_linear_5510_3648" x1="55.8095" y1="220.41" x2="79.4998" y2="131" gradientUnits="userSpaceOnUse"><stop stop-color="#0059AA"/><stop offset="1" stop-color="#0086FF"/></linearGradient><clipPath id="clip0_5510_3648"><rect width="213.2" height="382.07" fill="white" transform="translate(96 116)"/></clipPath><clipPath id="clip1_5510_3648"><rect width="157.35" height="583.69" fill="white" transform="translate(-11)"/></clipPath></defs></svg>