<svg width="2226" height="265" viewBox="0 0 2226 265" fill="none" xmlns="http://www.w3.org/2000/svg"><path style="mix-blend-mode:color-dodge" d="M1678.31 163.941C1673.6 166.025 1665.42 164.431 1659.16 165.912C1655.58 166.754 1652.52 168.185 1649.62 169.566C1647.91 170.37 1642.61 173.998 1641.36 174.337C1638.51 175.103 1633.45 173.998 1630.25 174.224C1626.93 174.463 1622.98 175.367 1619.45 176.12C1605.37 179.146 1584.08 185.587 1577.07 193.008L2225.63 46.8959C2222.08 42.6897 2212.6 42.4888 2200.61 44.4475C2193.97 45.5399 2168.39 49.2815 2167.36 53.5505C2164.06 51.7048 2155.47 51.868 2149.57 54.9567C2141.52 49.4447 2120.14 50.6878 2103.24 53.5003C2079.47 57.4553 2053.45 64.5745 2031.53 72.786C2018.6 77.6325 2006.53 83.1822 1993.81 88.2296C1988.11 90.4897 1981.28 92.687 1976.51 95.4367C1969.32 95.0474 1966.53 92.3479 1956.35 94.9721C1946.99 85.9696 1918.18 85.9696 1892.85 89.435C1868.31 92.8 1843.19 99.2913 1819.95 107.453C1818.76 107.566 1817.58 107.704 1816.42 107.867C1800.45 110.064 1783.1 115.237 1768.6 121.779C1760.04 125.646 1752.1 130.254 1743.69 134.335C1739.92 136.155 1735.38 137.85 1732.26 140.211C1727.35 139.307 1725.33 136.444 1718.53 138.302C1711.73 128.722 1692.15 126.638 1675.1 128.258C1653.69 130.279 1631.89 137.411 1613.12 146.916C1607.88 149.565 1605.49 152.641 1602.71 156.244C1599.86 159.948 1595.52 165.222 1594.3 168.989C1593.6 166.402 1589.58 167.633 1586.08 168.675C1584.28 169.215 1582.18 170.583 1580.56 170.91C1577.96 171.45 1577.89 170.696 1575.92 169.642C1568.72 165.799 1556.28 169.981 1548.07 174.237C1544.68 175.982 1540.5 178.255 1537.87 180.414C1535.88 182.059 1534.99 185.274 1532.79 186.491C1529.69 188.212 1524.05 186.052 1519.87 187.056C1517.47 187.634 1515.46 188.827 1513.55 189.982C1512.44 190.66 1509.01 193.862 1508.17 194.1C1506.27 194.653 1502.78 193.184 1500.61 193.184C1498.36 193.184 1495.72 193.786 1493.36 194.276C1483.93 196.26 1469.77 201.094 1465.36 207.924L1684.54 158.542C1682.48 160.413 1680.96 162.774 1678.31 163.954V163.941ZM1770.72 139.118C1770.65 139.256 1770.57 139.382 1770.5 139.52C1770.46 139.407 1770.41 139.307 1770.34 139.206L1770.72 139.118Z" fill="url(#paint0_linear_5514_1838)"/><path style="mix-blend-mode:color-dodge" opacity="0.5" d="M0.0251116 125.649L500.211 14.2037C496.193 6.46931 488.296 4.19671 478.854 5.03795C473.63 5.50252 453.39 6.51954 453.616 13.4378C450.415 9.6836 443.333 8.21457 439.24 12.1697C431.179 1.3591 413.777 -0.938616 400.493 0.30441C381.81 2.04967 362.059 8.61636 345.988 17.8574C336.508 23.3067 327.908 30.0868 318.654 35.9001C314.511 38.5117 309.4 40.7843 306.148 44.3753C300.084 42.2534 297.096 37.2059 289.324 39.5037C279.292 22.591 255.41 16.7274 235.321 17.3552C210.096 18.1588 185.399 27.4752 164.82 41.161C159.082 44.978 156.81 49.8496 154.21 55.55C151.536 61.4136 147.38 69.7381 146.664 75.9155C145.308 71.4959 140.738 73.0528 136.758 74.3963C134.711 75.0868 132.476 77.1209 130.606 77.485C127.605 78.0626 127.366 76.7944 124.792 74.7855C115.413 67.4655 101.351 72.9775 92.348 79.1172C88.644 81.641 84.0863 84.9431 81.3617 88.2453C79.3025 90.7565 78.8756 96.055 76.49 97.838C73.1125 100.362 65.9431 96.0425 61.1342 97.2227C58.3845 97.9007 56.2124 99.6711 54.1532 101.354C52.9479 102.346 49.4825 107.318 48.5157 107.619C46.3435 108.31 41.8736 105.434 39.2871 105.158C36.6002 104.869 33.5617 105.572 30.8245 106.125C19.9386 108.31 3.92997 114.7 0 125.637L0.0251116 125.649Z" fill="url(#paint1_linear_5514_1838)"/><path style="mix-blend-mode:color-dodge" opacity="0.5" d="M822.452 181.091L449.243 264.248C450.072 260.293 454.956 257.443 461.686 255.396C465.415 254.266 479.641 249.57 481.21 252.257C482.478 250.022 486.986 247.687 490.815 248.164C493.666 242.024 505.104 236.789 514.584 233.926C527.918 229.895 543.198 227.447 556.608 226.92C564.518 226.606 572.152 227.033 579.999 226.92C583.515 226.869 587.608 226.455 590.76 227.008C594.413 224.685 595.204 222.01 601.143 220.931C603.818 211.978 618.822 203.742 632.859 198.945C650.475 192.919 669.861 190.269 687.49 190.307C692.412 190.307 695.199 191.6 698.426 193.119C701.741 194.676 706.7 196.811 708.747 198.983C708.571 196.962 712.112 196.409 715.2 195.919C716.782 195.668 718.842 195.882 720.223 195.555C722.445 195.028 722.282 194.475 723.563 193.069C728.196 187.921 739.295 186.49 747.042 186.578C750.231 186.616 754.199 186.716 756.911 187.294C758.97 187.733 760.59 189.641 762.686 189.717C765.65 189.83 769.517 186.377 773.133 185.624C775.205 185.197 777.138 185.322 778.984 185.448C780.064 185.523 783.705 186.54 784.446 186.415C786.116 186.138 788.476 183.916 790.196 183.163C791.979 182.384 794.252 181.882 796.273 181.405C804.334 179.496 816.99 177.914 822.44 181.091H822.452Z" fill="url(#paint2_linear_5514_1838)"/><defs><linearGradient id="paint0_linear_5514_1838" x1="1845.58" y1="66.455" x2="1831.06" y2="475.994" gradientUnits="userSpaceOnUse"><stop stop-color="white"/><stop offset="1" stop-color="#C6DAE2"/></linearGradient><linearGradient id="paint1_linear_5514_1838" x1="242.134" y1="24.7766" x2="268.518" y2="143.2" gradientUnits="userSpaceOnUse"><stop stop-color="white"/><stop offset="1" stop-color="#C6DAE2"/></linearGradient><linearGradient id="paint2_linear_5514_1838" x1="631.505" y1="203.005" x2="643.022" y2="254.698" gradientUnits="userSpaceOnUse"><stop stop-color="white"/><stop offset="1" stop-color="#C6DAE2"/></linearGradient></defs></svg>