<svg width="766" height="447" viewBox="0 0 766 447" fill="none" xmlns="http://www.w3.org/2000/svg"><path d="M896.742 337.136V345.406L809.542 355.047L656.135 366.249L641.665 370.471L540.131 369.918V364.597L515.104 369.364L444.069 371.57L444.573 361.912L528.987 358.905L544.823 355.32L544.119 360.037L655.021 357.955L657.044 356.699L896.742 337.136Z" fill="#1B3833"/><path d="M442.638 275.375L442.374 279.043L345.145 285.288L343.315 288.956L243.739 289.32V286.387L17.7254 297.193L16.2415 294.029L253.124 279.043L248.297 283.446H317.167L338.106 282.711L342.664 279.043L442.638 275.375Z" fill="#1B3833"/><path d="M896.742 200.833V337.137L657.045 356.7L655.021 357.955L544.12 360.037L544.824 355.32L528.987 358.905L444.574 361.913L444.72 359.087L576.496 330.263L734.08 307.685L662.91 306.578L666.693 300.704L644.534 302.728L617.295 305.116L618.333 294.467L491.907 301.439L377.991 304.009C377.991 304.009 377.991 300.365 379.31 297.573C380.038 296.02 381.175 294.731 382.941 294.467C387.891 293.732 442.374 279.043 442.374 279.043L442.638 275.375L342.664 279.043L338.106 282.711L317.167 283.446H248.297L253.124 279.043L16.2415 294.029L19.5788 287.098C66.0497 282.455 354.641 253.614 355.18 253.614C355.767 253.614 361.175 248.203 361.175 248.203L512.171 235.811H316.856L385.721 221.461H385.744C421.64 217.967 489.918 211.688 491.643 214.332C493.989 217.917 896.742 200.833 896.742 200.833Z" fill="#2A6036"/><mask id="mask0_3974_5656" style="mask-type:luminance" maskUnits="userSpaceOnUse" x="16" y="200" width="881" height="162"><path d="M896.742 200.833V337.137L657.045 356.7L655.021 357.955L544.12 360.037L544.824 355.32L528.987 358.905L444.574 361.913L444.72 359.087L576.496 330.263L734.08 307.685L662.91 306.578L666.693 300.704L644.534 302.728L617.295 305.116L618.333 294.467L491.907 301.439L377.991 304.009C377.991 304.009 377.991 300.365 379.31 297.573C380.038 296.02 381.175 294.731 382.941 294.467C387.891 293.732 442.374 279.043 442.374 279.043L442.638 275.375L342.664 279.043L338.106 282.711L317.167 283.446H248.297L253.124 279.043L16.2415 294.029L19.5788 287.098C66.0497 282.455 354.641 253.614 355.18 253.614C355.767 253.614 361.175 248.203 361.175 248.203L512.171 235.811H316.856L385.721 221.461H385.744C421.64 217.967 489.918 211.688 491.643 214.332C493.989 217.917 896.742 200.833 896.742 200.833Z" fill="white"/></mask><g mask="url(#mask0_3974_5656)"><path d="M983.549 152.619H963.096C966.399 158.592 968.674 162.706 970.95 166.821C961.354 173.818 952.627 183.236 944.767 195.074C943.066 195.215 941.36 195.347 939.659 195.487L939.559 195.438C938.556 194.736 937.547 194.042 936.544 193.34C937.377 190.126 938.21 186.912 939.254 182.889C933.265 178.081 927.248 173.248 921.095 168.316C922.303 166.705 923.447 165.177 925.324 162.673H909.916C910.778 165.135 912.661 170.505 914.549 175.875C908.954 177.659 903.358 179.444 897.763 181.228V170.414C894.666 173.677 892.273 176.205 888.443 180.237C892.754 180.658 895.282 180.906 897.804 181.154C892.906 188.275 888.003 195.388 883.105 202.51C881.041 203.071 878.976 203.633 876.911 204.187C876.548 203.666 876.19 203.137 875.826 202.617C876.002 201.46 876.184 200.304 876.36 199.147V177.37H846.265C848.388 180.501 849.943 182.781 851.421 184.962C846.412 188.903 841.919 192.431 837.321 196.049C837.244 195.487 836.934 193.133 836.617 190.77L834.024 191.497C834.576 195.19 835.133 198.883 836.153 205.715C832.23 207.268 827.197 209.259 822.165 211.25C821.877 206.508 821.584 201.766 821.297 197.024C665.232 220.115 509.168 243.205 353.104 266.304C353.239 269.278 353.379 272.244 353.514 275.218L459.958 257.819L460.058 260.149C409.651 272.5 359.239 284.851 308.832 297.201C302.146 299.432 295.465 301.671 288.779 303.893C287.189 303.571 285.6 303.257 284.01 302.943C283.963 302.472 283.946 301.993 283.963 301.522C288.867 298.614 293.77 295.714 298.674 292.806C301.424 291.575 304.175 290.344 315.965 285.065H299.471C276.995 283.231 254.52 281.389 232.05 279.555C234.566 279.357 237.076 279.167 239.592 278.969C239.592 278.605 239.592 278.242 239.586 277.886H212.764C212.242 277.746 211.72 277.597 211.204 277.448C205.104 275.846 199.004 274.251 192.259 272.483C193.526 270.848 194.693 269.352 195.855 267.857L198.025 264.528C211.286 262.206 224.548 259.877 237.809 257.555C239.528 257.092 241.246 256.638 242.971 256.175C260.285 252.342 277.594 248.509 294.908 244.676C323.724 245.312 352.535 246.229 381.351 246.377C387.645 246.41 393.938 243.709 400.237 242.272C402.595 240.991 404.953 239.719 407.317 238.438L407.757 241.52L438.855 228.921C438.556 226.426 438.251 223.923 437.951 221.428C429.564 222.684 421.171 223.94 414.519 224.939C420.461 220.057 427.863 213.968 435.271 207.88C436.116 206.591 436.96 205.294 437.799 204.005C438.726 202.956 439.647 201.907 440.573 200.857C444.298 199.527 448.016 198.197 456.779 195.066C449.876 194.215 448.104 194 446.333 193.786C458.744 185.921 471.155 178.056 483.566 170.191C483.912 170.084 484.264 169.985 484.61 169.877C485.308 169.836 486.006 169.795 486.704 169.745C488.417 169.497 490.129 169.241 491.836 168.993C498.159 168.01 504.488 167.027 510.81 166.044C512.2 165.342 513.59 164.64 514.981 163.937C517.69 164.226 520.394 164.516 523.104 164.805C523.843 164.408 524.588 164.02 525.327 163.623C526.33 164.111 527.333 164.607 528.33 165.094C528.981 164.871 529.632 164.656 530.277 164.433C531.093 164.507 531.902 164.573 532.717 164.648L533.175 164.821L533.644 164.805C535.38 164.59 537.122 164.383 538.858 164.169C539.685 164.342 540.512 164.516 541.339 164.697C546.108 164.697 550.876 164.714 555.651 164.722C556.448 164.838 557.252 164.953 558.05 165.069C561.68 165.796 565.311 166.523 567.405 166.944C559.68 157.758 558.894 149.992 565.041 143.639C570.531 143.218 576.021 142.797 581.517 142.375C577.845 146.382 574.173 150.389 570.824 154.04H602.485C612.785 153.941 623.084 153.842 633.39 153.743C633.982 153.792 634.574 153.842 635.167 153.9C635.917 153.925 636.674 153.949 637.425 153.982C637.97 153.949 638.516 153.908 639.061 153.875C639.619 153.966 640.182 154.065 640.739 154.156C646.587 154.792 652.434 155.428 658.276 156.064C659.431 156.172 660.593 156.279 661.748 156.395C672.165 156.94 682.582 157.493 692.993 158.039C701.474 160.922 709.955 163.805 718.442 166.688C741.968 164.871 765.5 163.062 789.026 161.244C804.387 158.609 819.748 155.973 835.109 153.33C842.148 152.322 849.192 151.306 856.23 150.298C859.022 149.34 861.814 148.373 864.606 147.415C864.852 146.762 865.093 146.109 865.339 145.457C866.372 146.894 867.404 148.323 868.43 149.761C871.257 149.1 874.084 148.439 876.906 147.786C883.217 145.779 889.528 143.763 895.839 141.756C896.173 140.07 896.502 138.377 896.836 136.691C903.37 135.155 909.898 133.61 916.432 132.073C935.307 131.239 954.175 130.404 973.05 129.57C975.191 129.38 977.331 129.198 979.472 129.008C980.827 129.14 982.188 129.281 983.543 129.413V152.628L983.549 152.619ZM508.722 211.473C508.552 211.184 508.388 210.903 508.218 210.614C508.359 210.944 508.505 211.267 508.646 211.597H457.371C460.439 220.429 461.436 223.295 461.929 224.708C455.606 230.35 449.582 235.737 443.553 241.115C444.057 243.734 444.556 246.353 445.06 248.963C458.357 244.717 471.654 240.471 484.95 236.224C484.581 233.324 484.217 230.433 483.847 227.533C497.924 223.113 511.995 218.694 534.811 211.531C522.617 210.366 519.297 210.052 515.984 209.738L516.019 209.796C513.585 210.35 511.156 210.911 508.722 211.465V211.473ZM610.069 175.421C607.676 178.056 603.271 182.922 595.529 191.456C614.978 187.879 631.753 184.797 648.528 181.708C648.499 179.609 648.463 177.519 648.434 175.421H610.069ZM504.886 195.818C521.855 193.026 532.313 191.307 542.77 189.581C514.64 174.066 522.447 171.934 504.886 195.818ZM577.217 169.803C577.182 171.868 577.147 173.934 577.106 175.991H597.94C597.945 174.818 597.957 173.644 597.963 172.471C591.048 171.579 584.133 170.687 577.217 169.795V169.803ZM484.563 195.074C484.616 192.654 484.669 190.233 484.721 187.813C479.085 187.259 473.442 186.706 467.806 186.152C467.642 188.044 467.483 189.936 467.319 191.828C473.067 192.91 478.815 193.992 484.563 195.083V195.074ZM332.399 278.093C332.698 279.629 333.003 281.166 333.302 282.703C338.663 279.745 344.024 276.788 349.385 273.83C346.875 262.314 341.209 263.735 332.399 278.093ZM528.77 209.986L529.016 213.175C536.166 211.688 543.316 210.201 550.466 208.714C550.384 207.632 550.302 206.549 550.219 205.467C543.07 206.971 535.92 208.483 528.77 209.986ZM569.141 187.375C569.112 185.508 569.082 183.641 569.053 181.765C562.056 177.668 558.906 179.543 559.598 187.375H569.141ZM451.037 224.675C450.644 223.75 450.251 222.824 449.858 221.891C447.723 223.989 445.588 226.088 443.459 228.186C443.834 229.119 444.21 230.053 444.579 230.987C446.732 228.88 448.884 226.781 451.037 224.675ZM589.007 185.962C589.018 184.847 589.03 183.732 589.042 182.625C586.825 182.823 584.608 183.029 582.391 183.228C582.426 184.145 582.461 185.053 582.496 185.97H589.007V185.962ZM547.31 183.831C547.41 184.971 547.515 186.103 547.615 187.243C549.463 186.664 551.31 186.078 553.152 185.499C553.064 184.566 552.97 183.641 552.882 182.707C551.023 183.079 549.169 183.459 547.31 183.831ZM578.396 186.73C578.332 185.615 578.267 184.508 578.203 183.393C576.619 183.657 575.036 183.922 573.452 184.186C573.487 185.037 573.516 185.888 573.552 186.73H578.402H578.396ZM464.152 192.86C464.081 191.605 464.005 190.341 463.935 189.085L459.882 190.555C459.982 191.539 460.081 192.513 460.181 193.496C461.507 193.282 462.826 193.075 464.152 192.86ZM443.342 235.349L443.576 233.861C442.931 233.614 442.286 233.374 433.353 229.962C442.081 234.671 442.708 235.01 443.342 235.349Z" fill="#7DB22A"/><path d="M908.942 267.517C869.052 273.961 567.451 325.214 559.956 290.566C629.143 285.585 698.324 280.603 767.511 275.613C814.657 272.912 861.796 270.21 908.942 267.517Z" fill="#7DB22A"/><path d="M734.079 226.335C672.347 238.422 197.121 334.493 307.002 269.551C393.07 260.207 479.137 250.863 565.217 241.52C621.512 236.456 677.796 231.4 734.085 226.335H734.079Z" fill="#7DB22A"/><path d="M910.625 306.569C848.893 318.655 373.668 414.726 483.548 349.784C569.616 340.44 655.684 331.097 741.763 321.753C798.058 316.689 854.342 311.633 910.631 306.569H910.625Z" fill="#79BC0F"/></g><path d="M809.542 355.047L896.742 345.406V388.093H736.032L734.337 386.994V376.527L809.542 355.047Z" fill="#2A6036"/><path d="M734.079 307.685H381.181L371.404 305.48L379.31 297.574C377.99 300.366 377.99 304.009 377.99 304.009L491.906 301.44L618.333 294.467L617.295 305.116L644.534 302.729L666.693 300.705L662.91 306.578L734.079 307.685Z" fill="#1B3833"/><g clip-path="url(#clip0_3974_5656)"><path d="M272.08 305.461C266.35 308.011 267.8 316.201 274.06 316.691C274.19 316.701 274.33 316.711 274.47 316.721C295.53 318.351 324.13 320.451 332.75 320.561H332.79C333.37 320.571 333.86 320.571 334.25 320.551H334.31C334.77 320.541 335.07 320.501 335.21 320.461C338.11 319.511 722.4 317.171 775.78 316.851C779.16 316.831 781.91 314.161 781.91 310.901V150.771C781.91 147.271 778.77 144.571 775.15 144.961L758.48 146.781C757.93 146.841 757.38 146.831 756.84 146.751L753.73 146.281C751.47 145.941 749.61 144.401 748.91 142.311L748.42 140.831C747.6 138.381 745.25 136.751 742.59 136.771L721.34 136.941C719.92 136.951 718.55 137.441 717.46 138.311L706.24 147.281L693.15 158.501C692.81 158.791 692.43 159.051 692.03 159.261L685.49 162.751C684.88 163.071 684.23 163.301 683.54 163.411L661.35 167.061C659.82 167.311 658.45 168.111 657.5 169.291L655.88 171.311C654.79 172.671 653.14 173.511 651.37 173.611C640.71 174.241 602.08 178.111 587.67 201.001C587.24 201.681 586.71 202.291 586.04 202.761C572.43 212.331 565.87 206.941 558.22 209.611C550.38 212.341 530.55 228.511 523.4 240.561C516.25 252.621 517.4 226.831 494.58 223.461C483.23 221.141 475.9 231.471 471.53 231.351C467.15 231.221 460.52 222.941 440.99 224.101C422.42 225.201 411.04 228.141 410.54 242.321C410.48 243.901 409.72 245.381 408.5 246.451C401.36 252.691 378.03 273.091 377.59 273.231C377.07 273.401 366.34 269.541 352.86 267.321C339.37 265.091 301.68 279.401 300.3 280.081C298.91 280.761 293.72 292.801 292.68 295.141C292.18 296.281 282.21 300.951 272.09 305.461H272.08Z" fill="#79BC0F"/><path d="M269.62 321.081L332.74 320.551H334.31L781.9 316.811V186.731L764.05 184.851L753.32 188.601C753.32 188.601 724.96 179.831 701.8 185.361C678.62 190.881 654.42 181.751 654.42 181.751C654.42 181.751 616.03 181.061 605.66 193.151C595.28 205.231 575.57 219.061 575.57 219.061C575.57 219.061 565.89 219.811 564.5 220.821C563.12 221.831 557.59 228.521 557.59 228.521L545.39 230.201C539.77 230.971 534.42 233.041 529.78 236.211C525.58 239.091 522.07 242.801 519.5 247.101L515.17 254.331C515.17 254.331 482.65 246.161 481.74 246.161C481.61 246.161 481.3 246.191 480.87 246.241C474.87 246.941 469.09 248.911 463.91 251.951L424.78 274.951L394.11 275.201L383.04 282.071L338.78 284.091L293.47 305.461C293.47 305.461 281.02 311.231 279.64 312.241C278.98 312.721 276.68 314.731 274.45 316.711C271.99 318.921 269.6 321.081 269.6 321.081H269.62Z" fill="#1B3833"/><path d="M781.9 280.921C781.9 279.551 780.62 278.521 779.22 278.761C775.42 279.421 768.86 280.611 768.37 281.081C768.01 281.431 767.54 282.481 767.16 283.411C766.78 284.341 765.72 284.971 764.65 284.811L745.94 282.021C745.53 281.961 745.11 282.011 744.72 282.161C743.1 282.801 738.69 284.591 737.93 285.321C737.31 285.921 733.72 287.241 731.39 288.041C730.27 288.431 729.03 287.931 728.54 286.881C726.67 282.861 722.32 273.621 721.78 273.451C721.19 273.271 713.1 272.501 710.69 272.281C710.25 272.241 709.81 272.321 709.42 272.521L695.76 279.321C695.59 279.411 695.4 279.471 695.21 279.511L690.25 280.601C689.91 280.681 689.56 280.671 689.22 280.601L682.5 279.081C681.97 278.961 681.4 279.031 680.91 279.271L674.07 282.711C673.48 283.011 673.05 283.541 672.89 284.161L671.72 288.831C671.47 289.821 670.55 290.531 669.49 290.541L659.66 290.621C659.13 290.621 658.62 290.801 658.22 291.131L647.99 299.211C647.19 299.841 646.05 299.891 645.21 299.311L632.97 290.951C632.86 290.871 632.75 290.791 632.66 290.691L625.92 284.051C625.6 283.731 625.38 283.321 625.3 282.881L624.22 276.641C624 275.351 622.67 274.541 621.36 274.891L618.26 275.721C617.96 275.801 617.65 275.821 617.34 275.781L597.4 273.231C596.88 273.161 596.35 273.271 595.9 273.541L590.19 276.891C589.86 277.091 589.47 277.201 589.08 277.211L576.73 277.691C575.9 277.721 575.12 277.321 574.69 276.631L573.28 274.381C572.87 273.721 572.12 273.321 571.31 273.321L561.69 273.401C561.01 273.401 560.37 273.131 559.94 272.631C558.26 270.721 554.06 265.961 553.85 265.961C553.59 265.961 544.77 266.371 544.25 266.371C543.77 266.371 538.63 274.281 537.79 275.581C537.71 275.701 537.65 275.831 537.59 275.961L533.92 285.241C533.62 285.991 532.92 286.541 532.1 286.651L521.69 288.141C521.29 288.201 520.88 288.151 520.5 288.011L509.24 283.641C508.49 283.351 507.62 283.461 506.98 283.951L500.36 288.881C499.49 289.531 498.27 289.501 497.45 288.811L488.46 281.261C488.19 281.031 487.87 280.871 487.52 280.791L481.55 279.341C480.53 279.091 479.82 278.211 479.84 277.191C479.89 273.271 479.08 263.831 470.5 261.531C459.61 258.621 457.1 255.641 456.58 255.061C456.06 254.481 442.14 251.591 440.76 251.361C439.38 251.131 440.5 241.951 433.93 240.921C427.36 239.891 417.56 244.831 413.06 245.031C409.32 245.201 395.46 245.971 390.91 246.221C390.02 246.271 389.24 246.811 388.9 247.611L382.06 263.851C381.72 264.671 380.9 265.211 379.99 265.241L350.84 266.181C350.47 266.191 350.12 266.291 349.79 266.461L333.74 275.081C332.98 275.491 332.05 275.451 331.33 274.981C327.3 272.291 312.89 263.591 294.57 262.741C294.21 262.721 293.85 262.631 293.54 262.451L286.04 258.241C285.71 258.051 285.34 257.951 284.95 257.941L272.23 257.601C271.56 257.581 270.92 257.851 270.46 258.321L256.85 272.611C256.72 272.751 256.6 272.911 256.51 273.071L255.13 275.571C254.61 276.521 253.46 276.971 252.4 276.651L249.22 275.681C248.66 275.511 248.19 275.141 247.91 274.641C246.22 271.651 240.12 260.951 239.53 260.821C238.91 260.671 226.4 260.851 223.97 260.891C223.7 260.891 223.43 260.951 223.18 261.041L215.01 264.111C214.87 264.161 214.73 264.201 214.59 264.231L209.19 265.191C209.02 265.221 208.85 265.271 208.69 265.341L188.53 273.821C188.3 273.921 188.06 273.981 187.81 274.001L177.43 274.901C176.82 274.951 176.26 275.231 175.87 275.681L164.71 288.411C164.66 288.471 164.61 288.531 164.57 288.591L142.39 319.701C142.29 319.831 142.18 319.961 142.06 320.071C140.53 321.451 141.53 323.911 143.62 323.891L779.61 318.741C780.88 318.731 781.9 317.731 781.9 316.511V280.911V280.921Z" fill="#79BC0F"/><path d="M573.49 320.431C574.24 320.421 589.63 316.301 590.08 315.711C593.07 311.871 604.65 298.791 587.84 291.531C569.16 283.461 560.63 282.321 558.33 280.161C556.03 278.001 541.73 278.741 538.5 280.321C535.97 281.561 534.31 284.641 533.71 285.921C533.53 286.311 533.24 286.641 532.87 286.881L525.14 292.011C524.68 292.311 524.14 292.461 523.59 292.421L517.12 291.981C516.23 291.921 515.38 292.331 514.9 293.051C512.44 296.721 504.84 307.781 502.53 307.991C500.22 308.201 494.92 300.971 493.46 298.891C493.2 298.521 492.85 298.241 492.42 298.071L485.16 295.061C484.76 294.891 484.41 294.621 484.15 294.281L478.48 286.611C478.08 286.071 477.45 285.721 476.76 285.651L470.61 285.061C469.82 284.981 469.13 284.541 468.75 283.881C466.8 280.511 459.67 269.961 444.6 265.261C443.95 265.061 443.4 264.611 443.13 264.011C442.43 262.451 440.7 259.431 437.76 259.151C435.1 258.891 431.51 259.691 429.43 260.241C428.48 260.491 427.49 260.181 426.89 259.431C425.18 257.301 420.44 253.291 408.94 253.381C393.29 253.511 388.45 265.301 388.62 268.301C388.75 270.511 388.97 278.181 389.08 282.071C389.12 283.351 388.07 284.421 386.74 284.481L368.95 285.231C368.35 285.261 367.77 285.501 367.34 285.911L355.66 297.021C354.91 297.731 353.78 297.901 352.85 297.451L324.79 283.651C324.28 283.401 323.89 282.981 323.67 282.471C322.69 280.221 319.12 273.691 310.03 271.031C301.85 268.631 294.93 267.561 291.87 267.161C290.86 267.031 290.06 266.301 289.85 265.341C289.59 264.111 288.36 263.311 287.08 263.531C280.43 264.671 261.41 269.271 256.2 285.321C255.98 286.011 255.47 286.581 254.77 286.851C252.34 287.801 246.45 290.771 243.41 297.991C242.75 299.551 240.64 299.951 239.43 298.751C235.42 294.771 228.81 285.011 222.08 281.861C212.97 277.601 194.07 272.641 186.69 292.481C179.31 312.321 169.32 298.401 158.39 305.541C151.76 309.881 143.47 315.761 137.97 319.711C136.08 321.071 137.09 323.951 139.44 323.911L573.49 320.421V320.431Z" fill="#1B3833"/></g><path d="M446.249 154.883C442.592 157.232 443.513 164.946 447.514 165.444C447.601 165.453 447.687 165.463 447.773 165.472C461.221 167.163 479.479 169.362 484.984 169.531H485.011C485.382 169.55 485.693 169.55 485.945 169.531H485.985C486.276 169.522 486.468 169.494 486.561 169.456C488.409 168.582 733.792 169.334 767.877 169.447C770.037 169.447 771.786 166.966 771.786 163.903V13.455C771.786 10.1664 769.778 7.60133 767.473 7.93958L756.833 9.5181C756.482 9.57448 756.131 9.55568 755.787 9.47112L753.806 9.00132C752.362 8.66307 751.176 7.2067 750.725 5.23355L750.407 3.84294C749.891 1.55033 748.387 0 746.691 0H733.123C732.222 0 731.341 0.44161 730.646 1.25906L723.478 9.60266L715.124 20.0416C714.905 20.314 714.667 20.5489 714.408 20.7463L710.228 23.9691C709.844 24.2697 709.42 24.4765 708.982 24.5704L694.812 27.8308C693.838 28.0563 692.957 28.7892 692.354 29.8979L691.321 31.7771C690.625 33.0456 689.572 33.8254 688.439 33.91C681.629 34.4268 656.964 37.7529 647.769 59.1569C647.498 59.7864 647.153 60.3596 646.729 60.7918C638.037 69.6804 633.85 64.5596 628.961 67.0119C623.953 69.5207 611.293 84.5542 606.728 95.8293C602.164 107.104 602.899 82.8817 588.325 79.5367C581.077 77.2723 576.4 86.922 573.604 86.7716C570.809 86.6119 566.576 78.7851 554.101 79.7247C542.243 80.6173 534.982 83.2951 534.657 96.6092C534.624 98.0937 534.134 99.4749 533.352 100.471C528.794 106.278 513.895 125.267 513.617 125.398C513.286 125.558 506.435 121.847 497.823 119.657C489.211 117.459 465.143 130.613 464.262 131.243C463.374 131.872 460.062 143.147 459.399 145.337C459.075 146.398 452.708 150.72 446.249 154.873V154.883Z" fill="#79BC0F"/><path d="M444.679 169.55H484.984L485.985 169.541L771.786 169.465V47.2428L760.391 45.3354L753.541 48.7743C753.541 48.7743 735.435 40.318 720.642 45.3354C705.842 50.3435 690.387 41.577 690.387 41.577C690.387 41.577 665.875 40.6374 659.25 51.9126C652.625 63.1877 640.038 76.0226 640.038 76.0226C640.038 76.0226 633.857 76.6521 632.969 77.5917C632.088 78.5313 628.557 84.7702 628.557 84.7702L620.766 86.2548C617.176 86.9407 613.757 88.8387 610.796 91.789C608.113 94.4575 605.874 97.9246 604.231 101.937L601.468 108.702C601.468 108.702 580.706 100.772 580.123 100.772C580.037 100.772 579.845 100.8 579.573 100.837C575.744 101.448 572.054 103.252 568.748 106.071L543.766 127.381H524.183L517.115 133.751L488.853 135.311L459.923 155.043C459.923 155.043 451.973 160.37 451.092 161.31C450.668 161.751 449.204 163.63 447.779 165.472C446.209 167.53 444.686 169.541 444.686 169.541L444.679 169.55Z" fill="#1B3833"/><path d="M771.786 135.743C771.786 134.456 770.971 133.479 770.076 133.695C767.652 134.287 763.465 135.349 763.154 135.79C762.928 136.11 762.624 137.096 762.378 137.97C762.133 138.844 761.464 139.427 760.775 139.267L748.831 136.504C748.566 136.448 748.301 136.486 748.049 136.627C747.015 137.219 744.193 138.863 743.716 139.549C743.325 140.103 741.027 141.315 739.543 142.057C738.827 142.414 738.039 141.935 737.727 140.949C736.535 137.153 733.759 128.443 733.415 128.274C733.037 128.095 727.87 127.315 726.333 127.08C726.055 127.043 725.77 127.108 725.518 127.296L716.793 133.582C716.68 133.657 716.568 133.723 716.442 133.761L713.275 134.747C713.057 134.813 712.831 134.813 712.613 134.738L708.32 133.263C707.975 133.141 707.618 133.206 707.306 133.432L702.941 136.608C702.563 136.88 702.285 137.378 702.185 137.97L701.437 142.349C701.278 143.279 700.688 143.937 700.012 143.937H693.732C693.394 143.937 693.07 144.096 692.811 144.397L686.279 151.914C685.769 152.506 685.04 152.534 684.504 151.989L676.686 144.04C676.614 143.965 676.547 143.89 676.488 143.796L672.188 137.5C671.983 137.2 671.844 136.815 671.797 136.392L671.108 130.519C670.969 129.307 670.121 128.537 669.287 128.856L667.306 129.608C667.114 129.683 666.915 129.702 666.723 129.655L653.99 127.099C653.659 127.033 653.321 127.127 653.029 127.372L649.386 130.472C649.174 130.651 648.929 130.754 648.677 130.764L640.787 131.121C640.257 131.149 639.76 130.764 639.482 130.115L638.587 127.992C638.322 127.362 637.845 126.986 637.328 126.986H631.187C630.757 126.986 630.346 126.723 630.068 126.253C628.994 124.449 626.311 119.939 626.179 119.939C626.013 119.939 620.382 120.249 620.051 120.249C619.746 120.249 616.467 127.644 615.93 128.856C615.877 128.969 615.838 129.082 615.804 129.213L613.459 137.904C613.267 138.609 612.823 139.117 612.293 139.22L605.649 140.535C605.39 140.582 605.132 140.535 604.887 140.404L597.692 136.213C597.209 135.931 596.659 136.035 596.248 136.486L592.021 141.071C591.465 141.672 590.69 141.635 590.166 140.977L584.429 133.817C584.257 133.601 584.052 133.451 583.833 133.366L580.017 131.957C579.368 131.713 578.918 130.876 578.924 129.927C578.951 126.244 578.441 117.365 572.962 115.147C566.006 112.329 564.403 109.51 564.071 108.965C563.74 108.42 554.85 105.601 553.969 105.366C553.087 105.131 553.803 96.5153 549.609 95.5005C545.416 94.4857 539.155 99.0522 536.287 99.2025C533.895 99.3341 525.045 99.9542 522.143 100.151C521.573 100.189 521.076 100.696 520.864 101.439L516.499 116.651C516.28 117.412 515.763 117.919 515.18 117.947L496.565 118.605C496.333 118.605 496.101 118.699 495.895 118.859L485.647 126.836C485.163 127.212 484.567 127.174 484.11 126.723C481.533 124.168 472.331 115.88 460.638 114.941C460.406 114.922 460.181 114.828 459.982 114.659L455.193 110.637C454.981 110.459 454.742 110.365 454.497 110.346L446.375 109.933C445.951 109.914 445.54 110.158 445.249 110.6L436.557 123.923C436.471 124.055 436.398 124.196 436.338 124.355L435.457 126.695C435.126 127.578 434.391 128.001 433.715 127.691L431.681 126.761C431.323 126.601 431.025 126.244 430.846 125.774C429.767 122.946 425.871 112.855 425.494 112.723C425.096 112.582 417.113 112.658 415.556 112.667C415.384 112.667 415.212 112.714 415.046 112.808L409.833 115.627C409.746 115.674 409.654 115.711 409.568 115.73L406.116 116.594C406.003 116.623 405.897 116.67 405.791 116.726L392.919 124.534C392.774 124.619 392.621 124.675 392.462 124.694L385.831 125.455C385.447 125.502 385.089 125.755 384.837 126.178L377.715 138.055C377.682 138.111 377.656 138.158 377.629 138.224L363.465 167.286C363.406 167.408 363.333 167.53 363.253 167.633C362.273 168.911 362.916 171.232 364.247 171.232H770.322C771.13 171.232 771.786 170.302 771.786 169.155V135.706V135.743Z" fill="#79BC0F"/><path d="M638.713 172.056C639.19 172.056 649.022 167.502 649.306 166.957C651.214 163.368 658.608 151.172 647.875 144.219C635.951 136.495 630.505 135.349 629.034 133.31C627.564 131.271 618.435 131.844 616.374 133.31C614.765 134.456 613.698 137.341 613.314 138.543C613.195 138.91 613.016 139.211 612.777 139.436L607.842 144.2C607.55 144.482 607.199 144.613 606.848 144.576L602.721 144.115C602.158 144.049 601.614 144.425 601.303 145.102C599.733 148.531 594.884 158.867 593.406 159.045C591.929 159.224 588.544 152.393 587.616 150.429C587.451 150.082 587.225 149.819 586.954 149.649L582.316 146.765C582.058 146.605 581.839 146.351 581.674 146.023L578.057 138.769C577.798 138.252 577.401 137.923 576.957 137.858L573.028 137.256C572.525 137.181 572.081 136.758 571.836 136.129C570.59 132.943 566.039 122.984 556.413 118.445C555.996 118.248 555.651 117.825 555.473 117.262C555.022 115.786 553.922 112.939 552.048 112.648C550.352 112.385 548.059 113.109 546.728 113.607C546.125 113.832 545.489 113.531 545.105 112.827C544.012 110.807 540.984 107.001 533.644 107.001C523.654 107.001 520.56 118.041 520.672 120.86C520.752 122.937 520.898 130.143 520.964 133.808C520.984 135.011 520.321 136.007 519.473 136.054L508.118 136.627C507.734 136.645 507.363 136.871 507.092 137.256L499.639 147.611C499.162 148.278 498.44 148.428 497.843 147.986L479.93 134.804C479.605 134.569 479.353 134.165 479.214 133.686C478.585 131.562 476.306 125.398 470.503 122.824C465.276 120.513 460.857 119.451 458.909 119.056C458.267 118.925 457.75 118.229 457.617 117.327C457.452 116.172 456.67 115.411 455.849 115.608C451.602 116.623 439.459 120.804 436.127 135.837C435.981 136.486 435.656 137.012 435.212 137.266C433.662 138.139 429.906 140.883 427.958 147.648C427.534 149.114 426.189 149.462 425.414 148.325C422.85 144.557 418.637 135.33 414.338 132.323C408.521 128.255 396.451 123.454 391.74 142.029C387.03 160.605 380.65 147.46 373.668 154.084C369.435 158.106 364.141 163.565 360.63 167.248C359.425 168.507 360.067 172.019 361.564 172L638.713 172.056Z" fill="#1B3833"/><circle cx="547.831" cy="135.817" r="5.77944" fill="#F88E5C"/><defs><clipPath id="clip0_3974_5656"><rect width="644.9" height="196.9" fill="white" transform="matrix(-1 0 0 1 781.9 136.771)"/></clipPath></defs></svg>