<svg width="645" height="197" viewBox="0 0 645 197" fill="none" xmlns="http://www.w3.org/2000/svg"><g clip-path="url(#clip0_3974_5612)"><path d="M509.82 168.69C515.55 171.24 514.1 179.43 507.84 179.92C507.71 179.93 507.57 179.94 507.43 179.95C486.37 181.58 457.77 183.68 449.15 183.79H449.11C448.53 183.8 448.04 183.8 447.65 183.78H447.59C447.13 183.77 446.83 183.73 446.69 183.69C443.79 182.74 59.5 180.4 6.11999 180.08C2.73999 180.06 -0.0100098 177.39 -0.0100098 174.13V13.9999C-0.0100098 10.4999 3.12999 7.79994 6.74999 8.18994L23.42 10.0099C23.97 10.0699 24.52 10.0599 25.06 9.97994L28.17 9.50994C30.43 9.16994 32.29 7.62994 32.99 5.53994L33.48 4.05994C34.3 1.60994 36.65 -0.0200621 39.31 -6.21372e-05L60.56 0.169938C61.98 0.179938 63.35 0.669938 64.44 1.53994L75.66 10.5099L88.75 21.7299C89.09 22.0199 89.47 22.2799 89.87 22.4899L96.41 25.9799C97.02 26.2999 97.67 26.5299 98.36 26.6399L120.55 30.2899C122.08 30.5399 123.45 31.3399 124.4 32.5199L126.02 34.5399C127.11 35.8999 128.76 36.7399 130.53 36.8399C141.19 37.4699 179.82 41.3399 194.23 64.2299C194.66 64.9099 195.19 65.5199 195.86 65.9899C209.47 75.5599 216.03 70.1699 223.68 72.8399C231.52 75.5699 251.35 91.7399 258.5 103.79C265.65 115.85 264.5 90.0599 287.32 86.6899C298.67 84.3699 306 94.6999 310.37 94.5799C314.75 94.4499 321.38 86.1699 340.91 87.3299C359.48 88.4299 370.86 91.3699 371.36 105.55C371.42 107.13 372.18 108.61 373.4 109.68C380.54 115.92 403.87 136.32 404.31 136.46C404.83 136.63 415.56 132.77 429.04 130.55C442.53 128.32 480.22 142.63 481.6 143.31C482.99 143.99 488.18 156.03 489.22 158.37C489.72 159.51 499.69 164.18 509.81 168.69H509.82Z" fill="#79BC0F"/><path d="M512.28 184.31L449.16 183.78H447.59L0 180.04V49.9599L17.85 48.0799L28.58 51.8299C28.58 51.8299 56.94 43.0599 80.1 48.5899C103.28 54.1099 127.48 44.9799 127.48 44.9799C127.48 44.9799 165.87 44.2899 176.24 56.3799C186.62 68.4599 206.33 82.2899 206.33 82.2899C206.33 82.2899 216.01 83.0399 217.4 84.0499C218.78 85.0599 224.31 91.7499 224.31 91.7499L236.51 93.4299C242.13 94.1999 247.48 96.2699 252.12 99.4399C256.32 102.32 259.83 106.03 262.4 110.33L266.73 117.56C266.73 117.56 299.25 109.39 300.16 109.39C300.29 109.39 300.6 109.42 301.03 109.47C307.03 110.17 312.81 112.14 317.99 115.18L357.12 138.18L387.79 138.43L398.86 145.3L443.12 147.32L488.43 168.69C488.43 168.69 500.88 174.46 502.26 175.47C502.92 175.95 505.22 177.96 507.45 179.94C509.91 182.15 512.3 184.31 512.3 184.31H512.28Z" fill="#1B3833"/><path d="M0 144.15C0 142.78 1.28 141.75 2.68 141.99C6.48 142.65 13.04 143.84 13.53 144.31C13.89 144.66 14.36 145.71 14.74 146.64C15.12 147.57 16.18 148.2 17.25 148.04L35.96 145.25C36.37 145.19 36.79 145.24 37.18 145.39C38.8 146.03 43.21 147.82 43.97 148.55C44.59 149.15 48.18 150.47 50.51 151.27C51.63 151.66 52.87 151.16 53.36 150.11C55.23 146.09 59.58 136.85 60.12 136.68C60.71 136.5 68.8 135.73 71.21 135.51C71.65 135.47 72.09 135.55 72.48 135.75L86.14 142.55C86.31 142.64 86.5 142.7 86.69 142.74L91.65 143.83C91.99 143.91 92.34 143.9 92.68 143.83L99.4 142.31C99.93 142.19 100.5 142.26 100.99 142.5L107.83 145.94C108.42 146.24 108.85 146.77 109.01 147.39L110.18 152.06C110.43 153.05 111.35 153.76 112.41 153.77L122.24 153.85C122.77 153.85 123.28 154.03 123.68 154.36L133.91 162.44C134.71 163.07 135.85 163.12 136.69 162.54L148.93 154.18C149.04 154.1 149.15 154.02 149.24 153.92L155.98 147.28C156.3 146.96 156.52 146.55 156.6 146.11L157.68 139.87C157.9 138.58 159.23 137.77 160.54 138.12L163.64 138.95C163.94 139.03 164.25 139.05 164.56 139.01L184.5 136.46C185.02 136.39 185.55 136.5 186 136.77L191.71 140.12C192.04 140.32 192.43 140.43 192.82 140.44L205.17 140.92C206 140.95 206.78 140.55 207.21 139.86L208.62 137.61C209.03 136.95 209.78 136.55 210.59 136.55L220.21 136.63C220.89 136.63 221.53 136.36 221.96 135.86C223.64 133.95 227.84 129.19 228.05 129.19C228.31 129.19 237.13 129.6 237.65 129.6C238.13 129.6 243.27 137.51 244.11 138.81C244.19 138.93 244.25 139.06 244.31 139.19L247.98 148.47C248.28 149.22 248.98 149.77 249.8 149.88L260.21 151.37C260.61 151.43 261.02 151.38 261.4 151.24L272.66 146.87C273.41 146.58 274.28 146.69 274.92 147.18L281.54 152.11C282.41 152.76 283.63 152.73 284.45 152.04L293.44 144.49C293.71 144.26 294.03 144.1 294.38 144.02L300.35 142.57C301.37 142.32 302.08 141.44 302.06 140.42C302.01 136.5 302.82 127.06 311.4 124.76C322.29 121.85 324.8 118.87 325.32 118.29C325.84 117.71 339.76 114.82 341.14 114.59C342.52 114.36 341.4 105.18 347.97 104.15C354.54 103.12 364.34 108.06 368.84 108.26C372.58 108.43 386.44 109.2 390.99 109.45C391.88 109.5 392.66 110.04 393 110.84L399.84 127.08C400.18 127.9 401 128.44 401.91 128.47L431.06 129.41C431.43 129.42 431.78 129.52 432.11 129.69L448.16 138.31C448.92 138.72 449.85 138.68 450.57 138.21C454.6 135.52 469.01 126.82 487.33 125.97C487.69 125.95 488.05 125.86 488.36 125.68L495.86 121.47C496.19 121.28 496.56 121.18 496.95 121.17L509.67 120.83C510.34 120.81 510.98 121.08 511.44 121.55L525.05 135.84C525.18 135.98 525.3 136.14 525.39 136.3L526.77 138.8C527.29 139.75 528.44 140.2 529.5 139.88L532.68 138.91C533.24 138.74 533.71 138.37 533.99 137.87C535.68 134.88 541.78 124.18 542.37 124.05C542.99 123.9 555.5 124.08 557.93 124.12C558.2 124.12 558.47 124.18 558.72 124.27L566.89 127.34C567.03 127.39 567.17 127.43 567.31 127.46L572.71 128.42C572.88 128.45 573.05 128.5 573.21 128.57L593.37 137.05C593.6 137.15 593.84 137.21 594.09 137.23L604.47 138.13C605.08 138.18 605.64 138.46 606.03 138.91L617.19 151.64C617.24 151.7 617.29 151.76 617.33 151.82L639.51 182.93C639.61 183.06 639.72 183.19 639.84 183.3C641.37 184.68 640.37 187.14 638.28 187.12L2.29 181.97C1.02 181.96 0 180.96 0 179.74V144.14V144.15Z" fill="#79BC0F"/><path d="M208.41 183.66C207.66 183.65 192.27 179.53 191.82 178.94C188.83 175.1 177.25 162.02 194.06 154.76C212.74 146.69 221.27 145.55 223.57 143.39C225.87 141.23 240.17 141.97 243.4 143.55C245.93 144.79 247.59 147.87 248.19 149.15C248.37 149.54 248.66 149.87 249.03 150.11L256.76 155.24C257.22 155.54 257.76 155.69 258.31 155.65L264.78 155.21C265.67 155.15 266.52 155.56 267 156.28C269.46 159.95 277.06 171.01 279.37 171.22C281.68 171.43 286.98 164.2 288.44 162.12C288.7 161.75 289.05 161.47 289.48 161.3L296.74 158.29C297.14 158.12 297.49 157.85 297.75 157.51L303.42 149.84C303.82 149.3 304.45 148.95 305.14 148.88L311.29 148.29C312.08 148.21 312.77 147.77 313.15 147.11C315.1 143.74 322.23 133.19 337.3 128.49C337.95 128.29 338.5 127.84 338.77 127.24C339.47 125.68 341.2 122.66 344.14 122.38C346.8 122.12 350.39 122.92 352.47 123.47C353.42 123.72 354.41 123.41 355.01 122.66C356.72 120.53 361.46 116.52 372.96 116.61C388.61 116.74 393.45 128.53 393.28 131.53C393.15 133.74 392.93 141.41 392.82 145.3C392.78 146.58 393.83 147.65 395.16 147.71L412.95 148.46C413.55 148.49 414.13 148.73 414.56 149.14L426.24 160.25C426.99 160.96 428.12 161.13 429.05 160.68L457.11 146.88C457.62 146.63 458.01 146.21 458.23 145.7C459.21 143.45 462.78 136.92 471.87 134.26C480.05 131.86 486.97 130.79 490.03 130.39C491.04 130.26 491.84 129.53 492.05 128.57C492.31 127.34 493.54 126.54 494.82 126.76C501.47 127.9 520.49 132.5 525.7 148.55C525.92 149.24 526.43 149.81 527.13 150.08C529.56 151.03 535.45 154 538.49 161.22C539.15 162.78 541.26 163.18 542.47 161.98C546.48 158 553.09 148.24 559.82 145.09C568.93 140.83 587.83 135.87 595.21 155.71C602.59 175.55 612.58 161.63 623.51 168.77C630.14 173.11 638.43 178.99 643.93 182.94C645.82 184.3 644.81 187.18 642.46 187.14L208.41 183.65V183.66Z" fill="#1B3833"/></g><defs><clipPath id="clip0_3974_5612"><rect width="644.9" height="196.9" fill="white"/></clipPath></defs></svg>