<svg width="1126" height="178" viewBox="0 0 1126 178" fill="none" xmlns="http://www.w3.org/2000/svg"><path d="M312.901 58.5565H147.288L180.257 30.2579C186.438 24.9534 193.15 20.0074 200.34 15.6268C214.699 6.88151 230.907 0 248.814 0C281.739 0 303.121 34.4394 312.909 58.5565H312.901Z" fill="#599F35"/><mask id="mask0_5510_3656" style="mask-type:luminance" maskUnits="userSpaceOnUse" x="147" y="0" width="166" height="59"><path d="M312.901 58.5565H147.288L180.257 30.2579C186.438 24.9534 193.15 20.0074 200.34 15.6268C214.699 6.88151 230.907 0 248.814 0C281.739 0 303.121 34.4394 312.909 58.5565H312.901Z" fill="white"/></mask><g mask="url(#mask0_5510_3656)"><path d="M322 64.6816C307.126 63.8453 152.251 68.1781 143.196 59.0824C139.539 56.3744 188.107 30.9271 227.069 29.4298C230.574 29.2944 232.046 27.6934 239.179 17.403C261.533 -14.87 302.787 11.0233 322 64.6816Z" fill="#FAFAFA"/></g><path d="M193.273 58.5566C193.273 58.5566 208.727 33.9855 226.714 31.1819C235.58 29.796 242.785 36.6696 254.103 24.5314C262.672 15.3321 268.418 14.7905 273.947 14.7905C283.357 14.7905 300.132 32.9262 309.361 58.5646H193.273V58.5566Z" fill="url(#paint0_linear_5510_3656)"/><path d="M284.72 127.12C323.927 127.12 355.71 111.925 355.71 93.18C355.71 74.4354 323.927 59.24 284.72 59.24C245.513 59.24 213.73 74.4354 213.73 93.18C213.73 111.925 245.513 127.12 284.72 127.12Z" fill="#76B054"/><path d="M200.79 111.97C239.997 111.97 271.78 96.7746 271.78 78.0301C271.78 59.2855 239.997 44.0901 200.79 44.0901C161.583 44.0901 129.8 59.2855 129.8 78.0301C129.8 96.7746 161.583 111.97 200.79 111.97Z" fill="#55A549"/><path d="M71.5801 134.18C110.787 134.18 142.57 118.985 142.57 100.24C142.57 81.4955 110.787 66.3 71.5801 66.3C32.3734 66.3 0.590088 81.4955 0.590088 100.24C0.590088 118.985 32.3734 134.18 71.5801 134.18Z" fill="#76B054"/><path d="M394.77 111.57C429.056 111.57 456.85 98.2818 456.85 81.89C456.85 65.4981 429.056 52.21 394.77 52.21C360.484 52.21 332.69 65.4981 332.69 81.89C332.69 98.2818 360.484 111.57 394.77 111.57Z" fill="#55A549"/><path d="M525.11 130.83C615.193 130.83 688.22 117.542 688.22 101.15C688.22 84.7582 615.193 71.47 525.11 71.47C435.027 71.47 362 84.7582 362 101.15C362 117.542 435.027 130.83 525.11 130.83Z" fill="#55A549"/><path d="M525.11 141.54C615.193 141.54 688.22 128.252 688.22 111.86C688.22 95.4684 615.193 82.1802 525.11 82.1802C435.027 82.1802 362 95.4684 362 111.86C362 128.252 435.027 141.54 525.11 141.54Z" fill="#1B3833"/><path d="M267.6 55.0501C304.31 56.0901 342.51 60.7501 380.16 68.8001C400.66 73.1801 422.46 79.2101 436.84 89.7601C442.93 94.2301 447.47 99.7401 446.19 104.32C445.22 107.79 441.09 110.22 436.65 112.2C421.29 119.04 400.19 122.13 377.6 120.16C370.2 119.52 362.7 118.35 355.23 117.19C345.59 115.69 335.96 114.19 326.32 112.69C310.15 110.18 293.61 107.57 278.27 102.19C263.32 96.9501 250.12 89.1501 241.4 80.4101C234.82 73.8201 230.82 65.9501 235.83 60.7801C241.28 55.1701 255.06 54.6901 267.59 55.0401L267.6 55.0501Z" fill="#1B3833"/><path d="M237.94 58.97C240.82 57.29 244.66 56.38 248.34 55.58C256.11 53.87 263.89 52.16 271.66 50.45C301.88 43.81 333.83 37.15 367.69 43.98C391.53 48.76 414.62 60.2 432.51 75.11C438.75 80.29 444.59 86.78 447.03 93.03C448.62 97.01 448.82 100.92 446.86 104.34C443.98 109.35 436.92 111.91 429.46 112.4C422 112.87 414.08 111.57 406.28 110.26C360.57 102.58 314.89 94.94 269.21 87.26C260.67 85.83 251.72 84.25 244.18 79.96C236.66 75.69 231.19 67.76 234.41 62.31C235.21 60.94 236.43 59.87 237.94 58.98V58.97Z" fill="#1B3833"/><path d="M271.66 50.46C301.88 43.82 333.83 37.16 367.69 43.99C391.53 48.77 414.62 60.21 432.51 75.12C438.75 80.3 444.59 86.79 447.03 93.04C444.67 95.17 441.33 96.75 437.92 97.91C416.1 105.24 385.43 99.92 363.99 85.03C355.3 79 347.93 71.5 338.02 67.01C326.91 61.98 314.35 61.54 303.16 62.76C292 64 281.52 66.72 270.12 67.45C263.29 67.89 255.94 67.57 248.96 65.24C244.89 63.86 240.93 61.68 237.94 58.99C232.14 56.54 235.3 54.92 238.97 54.13C246.74 52.42 263.88 52.19 271.66 50.48V50.46Z" fill="#55A549"/><path d="M1020.03 65.0599C906.92 66.8399 789.22 74.8599 673.2 88.6799C610.02 96.2099 542.85 106.56 498.55 124.7C479.79 132.38 465.78 141.85 469.74 149.72C472.73 155.68 485.44 159.86 499.13 163.26C546.47 175.02 611.47 180.32 681.09 176.94C703.9 175.83 726.99 173.83 750.02 171.83C779.71 169.26 809.4 166.68 839.09 164.11C888.92 159.79 939.88 155.31 987.14 146.07C1033.22 137.06 1073.88 123.67 1100.75 108.65C1121.01 97.33 1133.36 83.7999 1117.91 74.9199C1101.13 65.2799 1058.67 64.4499 1020.03 65.0599Z" fill="#314141"/><path d="M1111.44 71.8C1102.58 68.92 1090.73 67.3399 1079.41 65.9799C1055.45 63.0399 1031.5 60.1 1007.54 57.17C914.43 45.76 815.97 34.3199 711.63 46.0399C638.18 54.2599 567.01 73.92 511.9 99.53C492.68 108.43 474.69 119.58 467.14 130.33C462.23 137.18 461.61 143.89 467.67 149.76C476.53 158.37 498.3 162.77 521.29 163.61C544.28 164.42 568.68 162.18 592.72 159.93C733.57 146.74 874.33 133.6 1015.09 120.41C1041.42 117.96 1068.97 115.24 1092.23 107.86C1115.4 100.52 1132.25 86.89 1122.33 77.52C1119.87 75.16 1116.1 73.3199 1111.45 71.7899L1111.44 71.8Z" fill="#2A6036"/><defs><linearGradient id="paint0_linear_5510_3656" x1="193.27" y1="36.6775" x2="193.293" y2="22.2802" gradientUnits="userSpaceOnUse"><stop stop-color="#0059AA"/><stop offset="1" stop-color="#0086FF"/></linearGradient></defs></svg>