<svg width="170" height="213" viewBox="0 0 170 213" fill="none" xmlns="http://www.w3.org/2000/svg"><path d="M123.375 210.734H169.238V136.689H163.967V62.6442L124.148 61.2544L123.375 210.734Z" fill="#E0F1FF"/><path d="M124.148 61.2544L94.3972 66.8423V211.339H123.375L124.148 61.2544Z" fill="#AAD5FF"/><path d="M145.686 111.915H152.658V65.4697H145.686V111.915Z" fill="#CFEAFF"/><path d="M132.209 175.378H139.181V89.7304H132.209V175.378Z" fill="#CFEAFF"/><path d="M145.686 161.382H152.658V114.937H145.686V161.382Z" fill="#CFEAFF"/><path d="M160.409 200.884H169.243V140.443H160.409V200.884Z" fill="#CFEAFF"/><path d="M1.89844 212.51L142.278 210.728L140.45 209.453C132.769 204.102 123.455 201.778 113.07 201.951H77.2005L18.3221 201.357L1.89844 210.728V212.51Z" fill="#D9EEFF"/><path d="M76.6584 201.957H113.07L113.07 38.8677H76.6584L76.6584 201.957Z" fill="#E0F1FF"/><path d="M0.814453 57.1021L0.877879 66.8421L0.924023 75.4172L0.993221 86.6451L1.03933 94.8223L1.09702 103.836L1.16044 113.772L1.20659 122.785L1.28156 134.469L1.32767 143.482L1.39113 152.691L1.46032 164.479L1.5007 171.71L1.56989 183.492L1.62755 192.903L1.6852 201.922L1.74289 210.728C2.27343 210.382 2.90777 210.047 3.65168 209.725C3.65168 209.725 3.65746 209.725 3.66322 209.725C18.8701 203.145 76.6528 201.957 76.6528 201.957V38.8677L42.9981 45.6205L36.2914 46.9642L21.1133 50.009C17.6994 50.6895 8.19587 53.3076 3.29414 55.6143C2.1927 56.1391 1.32193 56.6408 0.814453 57.1021Z" fill="#C8E7FF"/><path d="M1.04517 94.8224L1.10285 103.836C19.7755 97.7576 46.6197 92.5445 76.6644 89.7361V80.6938C46.5793 83.5138 19.7121 88.7384 1.05094 94.8224H1.04517Z" fill="#ADD5FF"/><path d="M1.04517 113.806L1.10285 122.82C19.7755 116.742 46.6197 111.529 76.6644 108.72V99.678C46.5793 102.498 19.7121 107.723 1.05094 113.806H1.04517Z" fill="#ADD5FF"/><path d="M1.04517 134.538L1.10285 143.551C19.7755 137.473 46.6197 132.26 76.6644 129.452V120.409C46.5793 123.229 19.7121 128.454 1.05094 134.538H1.04517Z" fill="#ADD5FF"/><path d="M0.923828 75.4174L0.993026 86.6452C15.4618 81.1611 34.6016 76.9917 55.7078 75.2501V63.9819C34.5554 65.735 15.3926 69.9159 0.923828 75.4174Z" fill="#ADD5FF"/><path d="M1.6333 192.903L1.69095 201.922C17.3303 198.404 35.8185 195.486 55.708 193.629V184.587C35.7955 186.456 17.29 189.374 1.63907 192.897L1.6333 192.903Z" fill="#ADD5FF"/><path d="M1.39685 152.686L1.46608 164.473C17.982 160.834 36.3375 157.68 55.7022 155.275V143.465C36.2972 145.875 17.9243 149.041 1.39111 152.686H1.39685Z" fill="#ADD5FF"/><path d="M1.51221 171.71L1.58141 183.492C18.0685 179.859 36.3837 176.716 55.708 174.323V162.507C36.3433 164.917 18.0166 168.077 1.51221 171.71Z" fill="#ADD5FF"/><path d="M86.4217 201.922H94.8643V161.382H86.4217V201.922Z" fill="#AED6FF"/><path d="M103.693 173.838H113.07V161.382H103.693V173.838Z" fill="#AED6FF"/><path d="M103.693 188.192H113.07V177.258H103.693V188.192Z" fill="#AED6FF"/><path d="M103.693 201.922H113.07V190.988H103.693V201.922Z" fill="#AED6FF"/><path d="M76.6584 89.7305H113.07V80.6882H76.6584V89.7305Z" fill="#AED6FF"/><path d="M76.6584 108.714H113.07V99.6721H76.6584V108.714Z" fill="#AED6FF"/><path d="M76.6584 129.452H113.07V120.409H76.6584V129.452Z" fill="#AED6FF"/><path d="M76.6584 143.459H113.07V136.464H76.6584V143.459Z" fill="#AED6FF"/><path d="M76.6584 157.472H113.07V150.477H76.6584V157.472Z" fill="#AED6FF"/><path d="M0.814453 57.1023L0.877879 66.8423C13.2245 62.6672 27.5952 59.1841 43.0039 56.8659V45.615L36.2972 46.9586L21.1191 50.0035C17.7052 50.6839 8.20164 53.302 3.29992 55.6087C2.19847 56.1335 1.32766 56.6352 0.82019 57.0966L0.814453 57.1023Z" fill="#ADD5FF"/><path d="M68.9253 40.7651H71.1167V7.62939e-05H68.9253V40.7651Z" fill="url(#paint0_linear_3974_5240)"/><defs><linearGradient id="paint0_linear_3974_5240" x1="68.9311" y1="20.3855" x2="71.1167" y2="20.3855" gradientUnits="userSpaceOnUse"><stop stop-color="#BEE0FF"/><stop offset="1" stop-color="white"/></linearGradient></defs></svg>